<?xml version="1.0" standalone="no"?><!DOCTYPE svg PUBLIC "-//W3C//DTD SVG 1.1//EN" "http://www.w3.org/Graphics/SVG/1.1/DTD/svg11.dtd"><svg t="1600408101470" class="icon" viewBox="0 0 1024 1024" version="1.1" xmlns="http://www.w3.org/2000/svg" p-id="3166" width="32" height="32" xmlns:xlink="http://www.w3.org/1999/xlink"><defs><style type="text/css"></style></defs><path d="M5.298087 0H1024v1022.901797H5.298087z" fill="#FFFFFF" p-id="3167"></path><path d="M0 0.912696h1018.88742V1024H0z" fill="#FFFFFF" opacity=".5" p-id="3168"></path><path d="M145.519304 639.376696h-65.476637c-12.614493 0-22.913855 7.828406-22.913855 17.482203v226.956985c0 9.646377 10.262261 17.489623 22.913855 17.489623h65.476637c12.659014 0 22.913855-7.828406 22.913855-17.489623V656.866319c0-9.653797-10.254841-17.489623-22.913855-17.489623z m51.778783-27.455073a77.749797 77.749797 0 0 1 52.416927-19.990261H526.988986a124.044986 124.044986 0 0 1 94.274782 40.321855 181.581913 181.581913 0 0 1 262.559536-89.87455V213.266551h-686.525217z m545.621333 261.936232a182.168116 182.168116 0 0 1-119.867362-104.930319c-57.470145 2.062841-119.874783 1.899594-140.770319 1.77345a17.066667 17.066667 0 0 1-15.538087-8.221682l-0.163246-0.341333c-4.734145-10.618435 6.336928-21.518841 21.021681-21.518841h36.804638c39.17913 0 70.937971-24.242087 70.937971-54.168116 0-29.896348-31.758841-54.168116-70.937971-54.168115h-306.606377c-12.874203 0-23.314551 7.969391-23.314551 17.808695v209.526725a19.233391 19.233391 0 0 0 16.88116 17.111188c33.472928 7.316406 111.504696 23.923014 186.427362 36.58945a634.924522 634.924522 0 0 0 393.334724-33.205798c-0.25971 0-0.512 0.037101-0.742029 0.037102a182.628174 182.628174 0 0 1-47.467594-6.292406zM899.82887 65.150145h-714.573913c-18.17971 0-32.923826 11.486609-32.923827 25.651942v69.36487c0 14.165333 14.744116 25.651942 32.923827 25.651942h714.573913c18.17971 0 32.916406-11.486609 32.916405-25.651942v-69.36487c-0.022261-14.165333-14.758957-25.651942-32.916405-25.651942z" fill="#608AFF" p-id="3169"></path><path d="M946.294725 830.924058l-38.585508-42.466319a151.863652 151.863652 0 0 0 10.084174-164.730435 146.372638 146.372638 0 0 0-88.954434-70.181101 143.953623 143.953623 0 0 0-38.362899-5.231304A147.730551 147.730551 0 0 0 648.681739 659.136928a151.81171 151.81171 0 0 0 14.425044 113.871768 146.342957 146.342957 0 0 0 88.947014 70.173681 143.389681 143.389681 0 0 0 120.616812-20.695189l38.852637 42.755711a23.744928 23.744928 0 0 0 34.192696 0.608463 25.08058 25.08058 0 0 0 0.601044-34.919884z m-181.626435-35.402203a98.207536 98.207536 0 0 1-59.659131-47.089159 101.836058 101.836058 0 0 1-9.698318-76.377044 99.112812 99.112812 0 0 1 95.120695-74.358724 96.931246 96.931246 0 0 1 25.740986 3.502376 98.207536 98.207536 0 0 1 59.65171 47.081739 101.850899 101.850899 0 0 1 9.698319 76.384464 99.112812 99.112812 0 0 1-95.135537 74.358725 97.205797 97.205797 0 0 1-25.718724-3.502377z m0 0" fill="#608AFF" p-id="3170"></path></svg>